# xmcd
#
# Track frame offsets:
#  150
#  12921
#  25953
#  46249
#  63577
#  79689
#  92077
#  108506
#  129797
#  141238
#  163978
#  179731
#
# Disc length: 2957 seconds
#
# Revision: 0
# Processed by: cddbd v1.5.1PL2 Copyright (c) Steve Scherf et al.
# Submitted via: Collectorz.com Music Collector 6.9
#
DISCID=a10b8b0c
DTITLE=John Mayall - Blues from Laurel Canyon
DYEAR=1968
DGENRE=Blues-Rock - British Blues
TTITLE0=Vacation
TTITLE1=Walking on sunset
TTITLE2=Laurel Canyon home
TTITLE3=2401
TTITLE4=Ready to ride
TTITLE5=Medicine man
TTITLE6=Somebody's acting like a child
TTITLE7=The Bear
TTITLE8=Miss James
TTITLE9=First time alone
TTITLE10=Long gone midnight
TTITLE11=Fly tomorrow
EXTD=
EXTT0=
EXTT1=
EXTT2=
EXTT3=
EXTT4=
EXTT5=
EXTT6=
EXTT7=
EXTT8=
EXTT9=
EXTT10=
EXTT11=
PLAYORDER=
